<?xml version="1.0" encoding="UTF-8"?><svg id="Layer_1" xmlns="http://www.w3.org/2000/svg" width="239" height="549.5" viewBox="0 0 239 549.5"><defs><style>.cls-1{fill:#d95958;}</style></defs><g id="Line_7"><path class="cls-1" d="m118.44,543.48h-.03c-2.76-.02-4.99-2.27-4.97-5.03L116.44,13.45c.02-2.75,2.25-4.97,5-4.97h.03c2.76.02,4.99,2.27,4.97,5.03l-3,525c-.02,2.75-2.25,4.97-5,4.97Z"/></g><g id="Line_8"><path class="cls-1" d="m9.71,78.61c-2.74,0-4.97-2.21-5-4.95-.03-2.76,2.19-5.02,4.95-5.05l108.5-1c2.74-.04,5.02,2.19,5.05,4.95.03,2.76-2.19,5.02-4.95,5.05l-108.5,1h-.05Z"/></g><g id="Line_9"><path class="cls-1" d="m121.44,175.39c-2.74,0-4.97-2.21-5-4.95-.03-2.76,2.19-5.02,4.95-5.05l108.5-1c2.77-.04,5.02,2.19,5.05,4.95s-2.19,5.02-4.95,5.05l-108.5,1h-.05Z"/></g><g id="Line_10"><path class="cls-1" d="m9.71,315.79c-2.74,0-4.97-2.21-5-4.95-.03-2.76,2.19-5.02,4.95-5.05l108.5-1c2.74,0,5.02,2.19,5.05,4.95.03,2.76-2.19,5.02-4.95,5.05l-108.5,1h-.05Z"/></g><g id="Line_11"><path class="cls-1" d="m121.16,380.06c-2.74,0-4.97-2.21-5-4.95-.03-2.76,2.19-5.02,4.95-5.05l108.5-1h.05c2.74,0,4.97,2.21,5,4.95.03,2.76-2.19,5.02-4.95,5.05l-108.5,1h-.05Z"/></g></svg>